# xmcd
#
# Track frame offsets:
# 150
# 15630
# 26385
# 41357
# 52065
# 63926
# 72395
# 85779
# 98637
# 112211
# 125597
# 139636
# 153943
# 167730
# 178985
# 192182
# 205574
# 219143
# 232437
# 244479
# 258780
# 271425
# 284545
# 296598
# 310293
#
# Disc length: 4435 seconds
#
#
# Revision: 0
# Processed by: cddbd v1.5.1PL2 Copyright (c) Steve Scherf et al.
# Submitted via: FreeRIP 2.945 
#
DISCID=74115119
DTITLE=Vern Gosdin - The Voice A 3 CD Collection [CD 2)
DYEAR=1997
DGENRE=Country
TTITLE0=I'll Understand
TTITLE1=I'm Gonna Be Movin'
TTITLE2=I'm Where A Memory Can Die For A Night
TTITLE3=If Jesus Comes Tomorrow What Then
TTITLE4=If You're Gonna Do Me Wrong (Do It Right)
TTITLE5=I'm A Chip Off The Chip Off The Old Block
TTITLE6=Impossible Mile
TTITLE7=Is It Raining At Your House
TTITLE8=It's Only Love Again
TTITLE9=Jesus Don't Turn Me Away
TTITLE10=Turn, Turn, Turn
TTITLE11=24KT Heartache
TTITLE12=Love Rolled Away The Stone
TTITLE13=My Heart Is In Good Hands
TTITLE14=Never My Love
TTITLE15=Nobody's Done That Yet
TTITLE16=Praying
TTITLE17=Rainbows And Roses
TTITLE18=Rodeo Princess
TTITLE19=Running Out Of Reasons To Leave
TTITLE20=Sarah's Eyes
TTITLE21=Slow Burning Memory
TTITLE22=Streets Of Gold
TTITLE23=Tennessee Courage
TTITLE24=The First Time Ever I Saw Your Face
EXTD=VGM Records
EXTT0=
EXTT1=
EXTT2=
EXTT3=
EXTT4=
EXTT5=
EXTT6=
EXTT7=
EXTT8=
EXTT9=
EXTT10=
EXTT11=
EXTT12=
EXTT13=
EXTT14=
EXTT15=
EXTT16=
EXTT17=
EXTT18=
EXTT19=
EXTT20=
EXTT21=
EXTT22=
EXTT23=
EXTT24=
PLAYORDER=
